<?xml version="1.0" encoding="iso-8859-1"?>
<!-- Generator: Adobe Illustrator 19.0.0, SVG Export Plug-In . SVG Version: 6.00 Build 0)  -->
<svg version="1.1" id="Layer_1" xmlns="http://www.w3.org/2000/svg" xmlns:xlink="http://www.w3.org/1999/xlink" x="0px" y="0px"
	 viewBox="0 0 511.996 511.996" style="enable-background:new 0 0 511.996 511.996;" xml:space="preserve">
<g>
	<g>
		<path d="M489.199,63.838l-9.122-9.122l-9.122-9.122L425.361,0l-18.236,18.236l45.602,45.602l-18.236,18.236L388.89,36.471
			l-18.236,18.236l45.602,45.602l-183.33,183.322c-50.662-41.387-125.116-39.04-172.356,8.201
			c-50.364,50.364-50.364,132.028,0,182.391c50.364,50.364,132.028,50.364,182.391,0c47.241-47.241,49.579-121.694,8.201-172.356
			L489.199,63.838z M224.725,455.987c-40.226,40.226-105.685,40.226-145.911,0s-40.226-105.685,0-145.911
			c40.226-40.226,105.685-40.226,145.911,0S264.96,415.753,224.725,455.987z"/>
	</g>
</g>
<g>
</g>
<g>
</g>
<g>
</g>
<g>
</g>
<g>
</g>
<g>
</g>
<g>
</g>
<g>
</g>
<g>
</g>
<g>
</g>
<g>
</g>
<g>
</g>
<g>
</g>
<g>
</g>
<g>
</g>
</svg>
